# xmcd
#
# Track frame offsets:
#	150
#	13466
#	32369
#	48692
#	61414
#	76829
#	89412
#	101820
#	119286
#	134552
#	151783
#	169440
#
# Disc length: 2521 seconds
#
# Revision: 1
# Processed by: cddbd v1.5.2PL0 Copyright (c) Steve Scherf et al.
# Submitted via: audiograbber 1.83.01
#
DISCID=a009d70c
DTITLE=Amy Winehouse - ZPASV130 Hits of Amy Winehouse Vol. 1
DYEAR=1900
DGENRE=Karaoke
TTITLE0=Addicted
TTITLE1=Back To Black
TTITLE2=Cupid
TTITLE3=He Can Only Hold Her
TTITLE4=Just Friends
TTITLE5=Love Is A Losing Game
TTITLE6=Me and Mr Jones
TTITLE7=Rehab
TTITLE8=Tears Dry On Their Own
TTITLE9=Valerie
TTITLE10=Wake Up Alone
TTITLE11=You Know I'm No Good
EXTD=
EXTT0=
EXTT1=
EXTT2=
EXTT3=
EXTT4=
EXTT5=
EXTT6=
EXTT7=
EXTT8=
EXTT9=
EXTT10=
EXTT11=
PLAYORDER=
